<?xml version="1.0" encoding="UTF-8"?>
<svg width="136px" height="136px" viewBox="0 0 136 136" version="1.1" xmlns="http://www.w3.org/2000/svg" xmlns:xlink="http://www.w3.org/1999/xlink">
    <title>RCI Logo Digital_Black Wordmark_Large</title>
    <g id="RCI-Logo-Digital_Black-Wordmark_Large" stroke="none" stroke-width="1" fill="none" fill-rule="evenodd">
        <g id="Group" transform="translate(32.000000, 32.000000)" fill-rule="nonzero">
            <g id="Logo/primary-Copy">
                <path d="M14.4454737,53.5652544 L9.192,53.5652544 L9.192,45.6986471 L14.4454737,45.6986471 C17.1612632,45.6986471 19.12,46.8606731 19.12,49.6319508 C19.12,52.4032285 17.1612632,53.5652544 14.4454737,53.5652544 Z M25.7536842,49.4083379 C25.7536842,43.329788 21.8357895,39.8885171 14.8909474,39.8885171 L2.60336842,39.8885171 L2.60336842,71.1748728 L9.192,71.1748728 L9.192,59.2857702 L14.0336842,59.2857702 L20.2332632,71.1748728 L27.6677895,71.1748728 L20.4324211,58.0087674 C23.7667368,56.4819439 25.7536842,53.2824624 25.7536842,49.4083379 L25.7536842,49.4083379 Z" id="Fill-1" fill="#000000"></path>
                <path d="M44.2425263,45.214223 C48.0261053,45.214223 50.2964211,47.8066949 50.9642105,52.0971874 L57.7313684,52.0971874 C56.9296842,44.3650014 51.8547368,39.2252873 44.2425263,39.2252873 C35.4269474,39.2252873 30.3069474,45.9290233 30.3069474,55.538881 C30.3069474,65.1487387 35.4269474,71.8524747 44.2425263,71.8524747 C51.8547368,71.8524747 56.9296842,66.7127606 57.7313684,58.9809973 L50.9642105,58.9809973 C50.2964211,63.271067 48.0261053,65.863539 44.2425263,65.863539 C39.5671579,65.863539 37.0298947,61.8858509 37.0298947,55.538881 C37.0298947,49.1919111 39.5671579,45.214223 44.2425263,45.214223" id="Fill-2" fill="#000000"></path>
                <polygon id="Fill-3" fill="#000000" points="63.1162105 71.1820588 69.7048421 71.1820588 69.7048421 39.8957031 63.1162105 39.8957031"></polygon>
                <path d="M0,0 C3.99536842,16.1170342 18.5048421,28.0606662 35.7953684,28.0606662 C53.0854737,28.0606662 67.5949474,16.1170342 71.5903158,0 L0,0" id="Fill-4" fill="#FA5454"></path>
            </g>
        </g>
    </g>
</svg>